<svg id="Calque_1" data-name="Calque 1" xmlns="http://www.w3.org/2000/svg" viewBox="0 0 141.84 141.84">
    <path class="logo-front" d="M596.24,350.13H632a10.75,10.75,0,0,0,.24,1.15q15.41,48.25,30.83,96.49c0.89,2.77,1.76,5.54,2.67,8.41H586.63a7.5,7.5,0,0,1,.31-0.81q9-16.86,18-33.71a1.72,1.72,0,0,1,1.28-.7c3.8-.05,7.6,0,11.4,0H619l-9-28c-0.27.46-.43,0.72-0.58,1L594.16,424q-17,33.35-34,66.71a1.56,1.56,0,0,1-1.63,1q-17.16,0-34.31,0v-0.24a4.64,4.64,0,0,0,.33-0.49l40-78.42q14.5-28.43,29-56.87C594.5,353.88,595.35,352,596.24,350.13Z" transform="translate(-524.24 -350.13)"/></svg>